<svg width="11" height="15" viewBox="0 0 11 15" fill="none" xmlns="http://www.w3.org/2000/svg">
<path d="M5.5 1C3.01562 1 1 2.91844 1 5.28125C1 8 4 12.3084 5.10156 13.7966C5.14729 13.8594 5.20722 13.9105 5.27646 13.9457C5.34571 13.981 5.4223 13.9994 5.5 13.9994C5.5777 13.9994 5.65429 13.981 5.72354 13.9457C5.79278 13.9105 5.85271 13.8594 5.89844 13.7966C7 12.3091 10 8.00219 10 5.28125C10 2.91844 7.98438 1 5.5 1Z" stroke="#B2DDFF" stroke-linecap="round" stroke-linejoin="round"/>
<path d="M5.5 7C6.32843 7 7 6.32843 7 5.5C7 4.67157 6.32843 4 5.5 4C4.67157 4 4 4.67157 4 5.5C4 6.32843 4.67157 7 5.5 7Z" stroke="#B2DDFF" stroke-linecap="round" stroke-linejoin="round"/>
</svg>
