<svg width="19" height="19" viewBox="0 0 19 19" fill="none" xmlns="http://www.w3.org/2000/svg">
<path d="M12.97 0.585573C13.3451 0.210631 13.8537 0 14.384 0C14.9143 0 15.4229 0.210631 15.798 0.585573L18.273 3.06057C18.4588 3.2463 18.6062 3.46682 18.7068 3.70952C18.8073 3.95222 18.8591 4.21236 18.8591 4.47507C18.8591 4.73778 18.8073 4.99792 18.7068 5.24063C18.6062 5.48333 18.4588 5.70385 18.273 5.88957L6.38 17.7826L0 18.8586L1.077 12.4786L12.97 0.585573ZM12.741 3.64257L15.216 6.11757L16.859 4.47457L14.384 2.00057L12.741 3.64257ZM13.801 7.53257L11.327 5.05757L2.943 13.4416L2.44 16.4186L5.417 15.9166L13.801 7.53257Z" fill="white"/>
</svg>
