<svg width="130" height="150" viewBox="0 0 130 150" fill="none" xmlns="http://www.w3.org/2000/svg">
<rect width="130" height="150" fill="#05062D" fill-opacity="0.5"/>
<path d="M101.787 112.991C84.7419 106.782 79.2929 101.54 79.2929 90.3175C79.2929 83.5825 84.878 79.2175 86.7817 73.4453C88.6857 67.673 89.787 60.8388 90.7024 55.8675C91.6178 50.8962 91.9817 48.9734 92.4795 43.6766C93.0882 37.066 88.6628 20 65 20C41.3442 20 36.9047 37.066 37.5271 43.6766C38.025 48.9734 38.3907 50.8964 39.3042 55.8675C40.2178 60.8387 41.3084 67.6725 43.211 73.4453C45.1136 79.2179 50.7066 83.5825 50.7066 90.3175C50.7066 101.54 45.2577 106.782 28.2125 112.991C11.1054 119.215 0 125.352 0 129.688V150H130V129.688C130 125.359 118.888 119.222 101.787 112.991Z" fill="white"/>
</svg>
