<svg width="14" height="15" viewBox="0 0 14 15" fill="none" xmlns="http://www.w3.org/2000/svg">
<path d="M12.836 3.21229L10.413 1.69079L6.468 7.97379L8.8895 9.49379L12.836 3.21229ZM6.0985 9.90579L6.045 11.3333L7.3085 10.6648L8.4835 10.0448L6.147 8.57679L6.0985 9.90579ZM13.4825 0.900789L12.216 0.104289C12.0628 0.00818913 11.8778 -0.0231467 11.7015 0.0171709C11.5252 0.0574884 11.3722 0.166159 11.276 0.319289L10.776 1.11329L13.1975 2.63429L13.6975 1.84129C13.8975 1.52129 13.8025 1.09979 13.4825 0.899789V0.900789ZM11.5 12.8108C11.5 12.9483 11.3875 13.0608 11.25 13.0608H1.75C1.6837 13.0608 1.62011 13.0344 1.57322 12.9876C1.52634 12.9407 1.5 12.8771 1.5 12.8108V3.31079C1.5 3.24448 1.52634 3.1809 1.57322 3.13401C1.62011 3.08713 1.6837 3.06079 1.75 3.06079H8.372L9.314 1.56079H1.75C0.785 1.56079 0 2.34579 0 3.31079V12.8108C0 13.7758 0.785 14.5608 1.75 14.5608H11.25C12.215 14.5608 13 13.7758 13 12.8108V4.82929L11.5 7.21729V12.8123V12.8108Z" fill="#B15EC0"/>
</svg>
