<svg width="14" height="16" viewBox="0 0 14 16" fill="none" xmlns="http://www.w3.org/2000/svg">
<path d="M12.9346 3.93104L10.5116 2.40954L6.56663 8.69254L8.98813 10.2125L12.9346 3.93104ZM6.19713 10.6245L6.14363 12.052L7.40713 11.3835L8.58213 10.7635L6.24563 9.29554L6.19713 10.6245ZM13.5811 1.61954L12.3146 0.823039C12.1615 0.726939 11.9764 0.695603 11.8001 0.735921C11.6238 0.776238 11.4708 0.884909 11.3746 1.03804L10.8746 1.83204L13.2961 3.35304L13.7961 2.56004C13.9961 2.24004 13.9011 1.81854 13.5811 1.61854V1.61954ZM11.5986 13.5295C11.5986 13.667 11.4861 13.7795 11.3486 13.7795H1.84863C1.78233 13.7795 1.71874 13.7532 1.67186 13.7063C1.62497 13.6594 1.59863 13.5958 1.59863 13.5295V4.02954C1.59863 3.96323 1.62497 3.89965 1.67186 3.85276C1.71874 3.80588 1.78233 3.77954 1.84863 3.77954H8.47063L9.41263 2.27954H1.84863C0.883633 2.27954 0.0986328 3.06454 0.0986328 4.02954V13.5295C0.0986328 14.4945 0.883633 15.2795 1.84863 15.2795H11.3486C12.3136 15.2795 13.0986 14.4945 13.0986 13.5295V5.54804L11.5986 7.93604V13.531V13.5295Z" fill="white"/>
</svg>
