<svg width="101" height="92" viewBox="0 0 101 92" fill="none" xmlns="http://www.w3.org/2000/svg">
<path d="M9 29.4141V45H2V10H9V23L10.5 22C12 21 13.2587 20.4875 15.3158 19.6558C17.373 18.8241 20.0602 18.4082 23.3776 18.4082C26.3058 18.4082 28.8633 18.7785 31.0502 19.519C33.2556 20.2596 34.9606 21.3647 36.1653 22.8345C37.3884 24.2928 38 26.1157 38 28.3032V45H31.0502V29.4141C31.0502 27.4886 28.8819 25.5005 27.2695 24.4409C25.6571 23.37 23.4147 22.8345 20.5421 22.8345C18.5776 22.8345 16.817 23.0908 15.2602 23.6035C13.722 24.1162 11.5 26 11.5 26C11.5 26 9 28.0241 9 29.4141Z" fill="white"/>
<path d="M38.9048 45V18.3183H46.0238V45H38.9048ZM42.5 14.2014C41.2619 14.2014 40.1984 13.9003 39.3095 13.2981C38.4365 12.6843 38 11.9548 38 11.1094C38 10.2524 38.4365 9.52285 39.3095 8.92066C40.1984 8.30689 41.2619 8 42.5 8C43.7381 8 44.7937 8.30689 45.6667 8.92066C46.5556 9.52285 47 10.2524 47 11.1094C47 11.9548 46.5556 12.6843 45.6667 13.2981C44.7937 13.9003 43.7381 14.2014 42.5 14.2014Z" fill="white"/>
<path d="M47 45V18.3983H53.68V22.6241H54.0499C54.6971 21.1924 55.8374 20.0667 57.4708 19.247C59.1196 18.4157 60.9842 18 63.0645 18C63.4959 18 63.4144 17.9769 64 18C64.601 18.0231 68.5 19.247 66 19.247L65.5 22.5C65.2226 22.4423 65.2295 22.9532 64.5207 22.8839C63.8118 22.8031 63.103 22.7627 62.3942 22.7627C60.7607 22.7627 59.3045 23.0225 58.0255 23.542C56.762 24.05 55.7603 24.7601 55.0207 25.6722C54.281 26.5728 54 27.5589 54 28.7135V45H47Z" fill="white"/>
<path d="M68.1243 45.5277C65.5447 45.5277 63.3232 44.9766 61.4595 43.8743C59.6072 42.7607 58.1754 41.1982 57.1641 39.1868C56.1641 37.1641 55.6641 34.7947 55.6641 32.0788C55.6641 29.397 56.1641 27.0334 57.1641 24.9879C58.1754 22.9425 59.5845 21.3459 61.3913 20.1982C63.2095 19.0504 65.3345 18.4766 67.7663 18.4766C69.2436 18.4766 70.6754 18.7209 72.0618 19.2095C73.4482 19.6982 74.6925 20.4652 75.7947 21.5107C76.897 22.5561 77.7663 23.9141 78.4027 25.5845C79.0391 27.2436 79.3572 29.2607 79.3572 31.6357V33.4425H58.5447V29.6243H74.3629C74.3629 28.2834 74.0902 27.0959 73.5447 26.0618C72.9993 25.0163 72.2322 24.1925 71.2436 23.5902C70.2663 22.9879 69.1186 22.6868 67.8004 22.6868C66.3686 22.6868 65.1186 23.0391 64.0504 23.7436C62.9936 24.4368 62.1754 25.3459 61.5959 26.4709C61.0277 27.5845 60.7436 28.7947 60.7436 30.1016V33.0845C60.7436 34.8345 61.0504 36.3232 61.6641 37.5504C62.2891 38.7777 63.1584 39.7152 64.272 40.3629C65.3857 40.9993 66.6868 41.3175 68.1754 41.3175C69.1413 41.3175 70.022 41.1811 70.8175 40.9084C71.6129 40.6243 72.3004 40.2038 72.88 39.647C73.4595 39.0902 73.9027 38.4027 74.2095 37.5845L79.0334 38.4538C78.647 39.8743 77.9538 41.1186 76.9538 42.1868C75.9652 43.2436 74.7209 44.0675 73.2209 44.6584C71.7322 45.2379 70.0334 45.5277 68.1243 45.5277Z" fill="#B15EC0"/>
<path d="M76.8125 46C74.3378 46 72.1292 45.4514 70.1867 44.3542C68.2575 43.2454 66.7408 41.6689 65.6365 39.6246C64.5455 37.5688 64 35.103 64 32.2271C64 29.3513 64.5522 26.8912 65.6565 24.847C66.7741 22.8027 68.3041 21.2377 70.2466 20.1521C72.1891 19.0664 74.3911 18.5236 76.8525 18.5236C78.755 18.5236 80.2851 18.8008 81.4426 19.3551C82.6134 19.898 83.5182 20.5332 84.1568 21.2608C84.8087 21.9884 85.3143 22.6295 85.6736 23.1838H86.0328L86.1725 17V11C83.3702 11.019 79.5 11 79 11C78.5 11 89 0 89 0C89 0 100 11 99 11C98 11 92.2021 11 92.2021 11V19V28V36.8212V45.4803H86.3001V41.3397H85.6736C85.3143 41.9057 84.7954 42.5525 84.1169 43.2801C83.4516 44.0077 82.5336 44.6429 81.3628 45.1858C80.192 45.7286 78.6752 46 76.8125 46ZM78.1297 41.5823C79.846 41.5823 81.2963 41.1896 82.4804 40.4042C83.6778 39.6073 84.5826 38.5043 85.1946 37.0953C85.8199 35.6862 86.1326 34.0462 86.1326 32.1752C86.1326 30.3272 85.8266 28.7103 85.2145 27.3244C84.6025 25.9384 83.7044 24.8585 82.5203 24.0847C81.3362 23.3109 79.8727 22.924 78.1297 22.924C76.3336 22.924 74.8368 23.3282 73.6393 24.1367C72.4419 24.9451 71.5372 26.0481 70.9252 27.4456C70.3264 28.8431 70.0271 30.4196 70.0271 32.1752C70.0271 33.9538 70.3331 35.5534 70.9451 36.974C71.5571 38.3946 72.4619 39.5207 73.6593 40.3523C74.87 41.1723 76.3602 41.5823 78.1297 41.5823Z" fill="white"/>
<path d="M31.0502 46H38V75.1138C38 78.2118 37.2551 80.9568 35.7652 83.3487C34.2753 85.7262 32.1807 87.5994 29.4813 88.9683C26.7818 90.3228 23.6177 91 19.9889 91C16.3749 91 13.2182 90.3228 10.5187 88.9683C7.8193 87.5994 5.72465 85.7262 4.23479 83.3487C2.74493 80.9568 2 78.2118 2 75.1138V46H9V74.5C9 76.5029 9.28703 78.3559 10.1868 79.9121C11.1014 81.4683 12.3921 82.6931 14.059 83.5865C15.7259 84.4654 17.7025 84.9049 19.9889 84.9049C22.2901 84.9049 24.2741 84.4654 25.941 83.5865C27.6226 82.6931 28.906 81.4683 29.791 79.9121C30.6908 78.3559 31.0502 76.5798 31.0502 74.5769V46Z" fill="#B15EC0"/>
<path d="M39 91V46H61.8284C66.811 46 70.9388 46.623 74.212 47.8691C77.4851 49.1152 79.9347 50.8197 81.5608 52.9824C83.1869 55.1309 84 57.5514 84 60.2441C84 62.9512 83.1765 65.3861 81.5295 67.5488C79.9034 69.6973 77.4434 71.4017 74.1494 72.6621C70.8763 73.9082 66.7589 74.5312 61.7971 74.5312H46.0987V68.9023H60.9215C64.0695 68.9023 66.6234 68.5299 68.583 67.7852C70.5427 67.026 71.9812 65.9948 72.8985 64.6914C73.8158 63.388 74.2745 61.9056 74.2745 60.2441C74.2745 58.5827 73.8158 57.1074 72.8985 55.8184C71.9812 54.5293 70.5323 53.5195 68.5518 52.7891C66.5921 52.0586 64.0069 51.6934 60.7964 51.6934H47V70.5V91H39Z" fill="#B15EC0"/>
<path d="M92.2021 46V77.0866H86.3001V46H92.2021ZM89.2617 90.0412C88.0827 90.0412 87.0742 89.6293 86.2362 88.8054C85.3981 87.9673 84.9862 86.9588 85.0004 85.7798C84.9862 84.6151 85.3981 83.6207 86.2362 82.7969C87.0742 81.9588 88.0827 81.5398 89.2617 81.5398C90.4123 81.5398 91.4066 81.9588 92.2447 82.7969C93.0827 83.6207 93.5089 84.6151 93.5231 85.7798C93.5089 86.5611 93.3029 87.2784 92.9052 87.9318C92.5217 88.571 92.0103 89.0824 91.3711 89.4659C90.7319 89.8494 90.0288 90.0412 89.2617 90.0412Z" fill="#B15EC0"/>
<path d="M63 29.6243H71V33.4425H63V29.6243Z" fill="#B15EC0"/>
</svg>
