<svg width="21" height="22" viewBox="0 0 21 22" fill="none" xmlns="http://www.w3.org/2000/svg">
<path d="M10.5 11.8408C9.57174 11.8408 8.6815 12.2096 8.02513 12.8659C7.36875 13.5223 7 14.4126 7 15.3408C7 16.2691 7.36875 17.1593 8.02513 17.8157C8.6815 18.4721 9.57174 18.8408 10.5 18.8408C11.4283 18.8408 12.3185 18.4721 12.9749 17.8157C13.6313 17.1593 14 16.2691 14 15.3408C14 14.4126 13.6313 13.5223 12.9749 12.8659C12.3185 12.2096 11.4283 11.8408 10.5 11.8408ZM9 15.3408C9 14.943 9.15804 14.5615 9.43934 14.2802C9.72064 13.9989 10.1022 13.8408 10.5 13.8408C10.8978 13.8408 11.2794 13.9989 11.5607 14.2802C11.842 14.5615 12 14.943 12 15.3408C12 15.7386 11.842 16.1202 11.5607 16.4015C11.2794 16.6828 10.8978 16.8408 10.5 16.8408C10.1022 16.8408 9.72064 16.6828 9.43934 16.4015C9.15804 16.1202 9 15.7386 9 15.3408Z" fill="#B2DDFF"/>
<path d="M16.026 4.457L12.847 0L1.158 9.338L0.51 9.331V9.341H0V21.341H21V9.341H20.038L18.124 3.742L16.026 4.457ZM17.925 9.341H7.897L15.366 6.795L16.888 6.308L17.925 9.341ZM14.05 5.131L6.34 7.759L12.446 2.881L14.05 5.131ZM2 17.51V13.17C2.42218 13.021 2.80565 12.7794 3.12231 12.4629C3.43896 12.1464 3.68077 11.7631 3.83 11.341H17.17C17.3191 11.7633 17.5609 12.1468 17.8775 12.4635C18.1942 12.7801 18.5777 13.0219 19 13.171V17.511C18.5777 17.6601 18.1942 17.9019 17.8775 18.2185C17.5609 18.5352 17.3191 18.9187 17.17 19.341H3.832C3.68218 18.9187 3.43996 18.5351 3.12302 18.2184C2.80607 17.9016 2.4224 17.6596 2 17.51Z" fill="#B2DDFF"/>
</svg>
