<svg width="16" height="16" viewBox="0 0 16 16" fill="none" xmlns="http://www.w3.org/2000/svg">
<g clip-path="url(#clip0_286_188)">
<path d="M8 0C5.87875 0 3.8425 0.843375 2.34375 2.34313C0.843465 3.84348 0.000429311 5.87823 0 8C0 10.1209 0.84375 12.1571 2.34375 13.6569C3.8425 15.1566 5.87875 16 8 16C10.1212 16 12.1575 15.1566 13.6562 13.6569C15.1562 12.1571 16 10.1209 16 8C16 5.87913 15.1562 3.84288 13.6562 2.34313C12.1575 0.843375 10.1212 0 8 0Z" fill="url(#paint0_linear_286_188)"/>
<path d="M3.62155 7.91504C5.95405 6.89904 7.50905 6.22921 8.28655 5.90554C10.5091 4.98141 10.9703 4.82091 11.2716 4.81548C11.3378 4.81441 11.4853 4.83079 11.5816 4.9086C11.6616 4.97423 11.6841 5.06298 11.6953 5.12529C11.7053 5.18754 11.7191 5.32941 11.7078 5.44016C11.5878 6.70516 11.0666 9.77491 10.8016 11.1918C10.6903 11.7913 10.4691 11.9923 10.2553 12.0119C9.7903 12.0547 9.4378 11.7049 8.9878 11.41C8.28405 10.9484 7.88655 10.6612 7.2028 10.2108C6.4128 9.69029 6.9253 9.40416 7.3753 8.93666C7.4928 8.81429 9.5403 6.95241 9.57905 6.78354C9.58405 6.76241 9.58905 6.68366 9.54155 6.64216C9.4953 6.60054 9.42655 6.61479 9.37655 6.62604C9.3053 6.64204 8.18155 7.38554 6.00155 8.85641C5.6828 9.07566 5.39405 9.18254 5.13405 9.17691C4.84905 9.17079 4.29905 9.01541 3.8903 8.88266C3.3903 8.71979 2.99155 8.63366 3.02655 8.35704C3.04405 8.21304 3.2428 8.06566 3.62155 7.91504Z" fill="white"/>
</g>
<defs>
<linearGradient id="paint0_linear_286_188" x1="800" y1="0" x2="800" y2="1600" gradientUnits="userSpaceOnUse">
<stop stop-color="#2AABEE"/>
<stop offset="1" stop-color="#229ED9"/>
</linearGradient>
<clipPath id="clip0_286_188">
<rect width="16" height="16" fill="white"/>
</clipPath>
</defs>
</svg>
