<svg width="16" height="8" viewBox="0 0 16 8" fill="none" xmlns="http://www.w3.org/2000/svg">
<g clip-path="url(#clip0_215_215)">
<path fill-rule="evenodd" clip-rule="evenodd" d="M12.748 -2.04395C12.8187 -2.04396 8.51454 -7.02883 8.57901 -6.99987C8.64348 -6.97092 8.70107 -6.92862 8.748 -6.87578L12.748 -2.37578L12 -1.71178L8.374 -5.79178L4.748 -1.71178L4 -2.37578L8 -6.87578C8.04693 -6.92862 8.10452 -6.97092 8.16899 -6.99987C8.23345 -7.02883 12.6773 -2.04396 12.748 -2.04395ZM8.374 5.70322L4.748 1.62322L4 2.28822L8 6.78822C8.04691 6.84109 8.1045 6.88342 8.16897 6.9124C8.23344 6.94139 8.30332 6.95637 8.374 6.95637C8.44468 6.95637 8.51456 6.94139 8.57903 6.9124C8.6435 6.88342 8.70109 6.84109 8.748 6.78822L12.748 2.28822L12 1.62422L8.374 5.70322Z" fill="white"/>
</g>
<defs>
<clipPath id="clip0_215_215">
<rect width="16" height="8" fill="white"/>
</clipPath>
</defs>
</svg>
